<?xml version="1.0" encoding="UTF-8"?>
<svg width="107px" height="27px" viewBox="0 0 107 27" version="1.1" xmlns="http://www.w3.org/2000/svg" xmlns:xlink="http://www.w3.org/1999/xlink">
    <!-- Generator: Sketch 51.2 (57519) - http://www.bohemiancoding.com/sketch -->
    <title>befold</title>
    <desc>Created with Sketch.</desc>
    <defs></defs>
    <g id="Page-1" stroke="none" stroke-width="1" fill="none" fill-rule="evenodd">
        <g id="Desktop-HD" transform="translate(-667.000000, -76.000000)" fill="#FFFFFF">
            <path d="M677.70241,83.4642857 C679.582573,83.4642857 681.263847,83.8690436 682.746283,84.6785714 C684.228719,85.4880993 685.391751,86.630945 686.235413,88.1071429 C687.079076,89.5833407 687.500901,91.2857046 687.500901,93.2142857 C687.500901,95.1428668 687.079076,96.851183 686.235413,98.3392857 C685.391751,99.8273884 684.228719,100.976186 682.746283,101.785714 C681.263847,102.595242 679.582573,103 677.70241,103 C676.376655,103 675.165414,102.773812 674.068653,102.321429 C672.971891,101.869045 672.049902,101.190481 671.302658,100.285714 L671.302658,102.75 L667,102.75 L667,76.25 L671.519599,76.25 L671.519599,86 C672.290948,85.1666625 673.200885,84.5357164 674.249437,84.1071429 C675.297989,83.6785693 676.448969,83.4642857 677.70241,83.4642857 Z M677.196215,99.1785714 C678.859436,99.1785714 680.227354,98.6309579 681.300011,97.5357143 C682.372668,96.4404707 682.908989,95.0000089 682.908989,93.2142857 C682.908989,91.4285625 682.372668,89.9881007 681.300011,88.8928571 C680.227354,87.7976136 678.859436,87.25 677.196215,87.25 C676.111506,87.25 675.135283,87.4940452 674.267515,87.9821429 C673.399748,88.4702405 672.712776,89.1666621 672.206578,90.0714286 C671.70038,90.976195 671.447285,92.0238036 671.447285,93.2142857 C671.447285,94.4047679 671.70038,95.4523764 672.206578,96.3571429 C672.712776,97.2619093 673.399748,97.9583309 674.267515,98.4464286 C675.135283,98.9345263 676.111506,99.1785714 677.196215,99.1785714 Z M708.749043,93.3214286 C708.749043,93.6309539 708.724938,94.0714257 708.676729,94.6428571 L693.527033,94.6428571 C693.792184,96.0476261 694.485183,97.1607102 695.606049,97.9821429 C696.726915,98.8035755 698.118937,99.2142857 699.782158,99.2142857 C701.903367,99.2142857 703.650928,98.5238164 705.024893,97.1428571 L707.447398,99.8928571 C706.579631,100.916672 705.482886,101.690474 704.15713,102.214286 C702.831374,102.738098 701.336909,103 699.673688,103 C697.552479,103 695.684396,102.583338 694.069385,101.75 C692.454374,100.916663 691.206977,99.7559598 690.327157,98.2678571 C689.447337,96.7797545 689.007434,95.0952475 689.007434,93.2142857 C689.007434,91.3571336 689.435285,89.6845313 690.291,88.1964286 C691.146715,86.7083259 692.333851,85.5476232 693.852444,84.7142857 C695.371037,83.8809482 697.082442,83.4642857 698.986709,83.4642857 C700.866871,83.4642857 702.548145,83.8749959 704.030581,84.6964286 C705.513017,85.5178612 706.670023,86.6726116 707.501633,88.1607143 C708.333244,89.648817 708.749043,91.3690379 708.749043,93.3214286 Z M698.986709,87.0357143 C697.54043,87.0357143 696.317137,87.4583291 695.316794,88.3035714 C694.316451,89.1488137 693.707818,90.2738025 693.490876,91.6785714 L704.446384,91.6785714 C704.253547,90.2976121 703.662992,89.1785757 702.674702,88.3214286 C701.686411,87.4642814 700.457092,87.0357143 698.986709,87.0357143 Z M719.728655,79.6071429 C717.824388,79.6071429 716.872269,80.6309421 716.872269,82.6785714 L716.872269,83.8214286 L722.187317,83.8214286 L722.187317,87.3928571 L717.016896,87.3928571 L717.016896,102.75 L712.497297,102.75 L712.497297,87.3928571 L709.315499,87.3928571 L709.315499,83.8214286 L712.497297,83.8214286 L712.497297,82.6071429 C712.497297,80.5595136 713.099904,78.9464345 714.305136,77.7678571 C715.510369,76.5892798 717.209721,76 719.403244,76 C721.138779,76 722.500671,76.3452346 723.488962,77.0357143 L722.223474,80.3928571 C721.452125,79.869045 720.620527,79.6071429 719.728655,79.6071429 Z M732.407637,103 C730.45516,103 728.695547,102.583338 727.128745,101.75 C725.561943,100.916663 724.33865,99.7559598 723.458831,98.2678571 C722.579011,96.7797545 722.139108,95.0952475 722.139108,93.2142857 C722.139108,91.3333239 722.579011,89.6547693 723.458831,88.1785714 C724.33865,86.7023736 725.561943,85.5476232 727.128745,84.7142857 C728.695547,83.8809482 730.45516,83.4642857 732.407637,83.4642857 C734.384218,83.4642857 736.155883,83.8809482 737.722685,84.7142857 C739.289487,85.5476232 740.51278,86.7023736 741.3926,88.1785714 C742.272419,89.6547693 742.712323,91.3333239 742.712323,93.2142857 C742.712323,95.0952475 742.272419,96.7797545 741.3926,98.2678571 C740.51278,99.7559598 739.289487,100.916663 737.722685,101.75 C736.155883,102.583338 734.384218,103 732.407637,103 Z M732.407637,99.1785714 C734.070858,99.1785714 735.444802,98.6309579 736.529511,97.5357143 C737.61422,96.4404707 738.156567,95.0000089 738.156567,93.2142857 C738.156567,91.4285625 737.61422,89.9881007 736.529511,88.8928571 C735.444802,87.7976136 734.070858,87.25 732.407637,87.25 C730.744416,87.25 729.376498,87.7976136 728.303841,88.8928571 C727.231184,89.9881007 726.694864,91.4285625 726.694864,93.2142857 C726.694864,95.0000089 727.231184,96.4404707 728.303841,97.5357143 C729.376498,98.6309579 730.744416,99.1785714 732.407637,99.1785714 Z M745.845911,76.25 L750.36551,76.25 L750.36551,102.75 L745.845911,102.75 L745.845911,76.25 Z M774,76.25 L774,102.75 L769.661185,102.75 L769.661185,100.285714 C768.913941,101.190481 767.991952,101.869045 766.89519,102.321429 C765.798429,102.773812 764.587188,103 763.261433,103 C761.405375,103 759.736153,102.595242 758.253717,101.785714 C756.771281,100.976186 755.608249,99.8273884 754.764587,98.3392857 C753.920924,96.851183 753.499099,95.1428668 753.499099,93.2142857 C753.499099,91.2857046 753.920924,89.5833407 754.764587,88.1071429 C755.608249,86.630945 756.771281,85.4880993 758.253717,84.6785714 C759.736153,83.8690436 761.405375,83.4642857 763.261433,83.4642857 C764.538979,83.4642857 765.708037,83.6785693 766.768642,84.1071429 C767.829246,84.5357164 768.733157,85.1785671 769.480401,86.0357143 L769.480401,76.25 L774,76.25 Z M763.803785,99.1785714 C764.888494,99.1785714 765.864717,98.9345263 766.732485,98.4464286 C767.600252,97.9583309 768.287224,97.2619093 768.793422,96.3571429 C769.29962,95.4523764 769.552715,94.4047679 769.552715,93.2142857 C769.552715,92.0238036 769.29962,90.976195 768.793422,90.0714286 C768.287224,89.1666621 767.600252,88.4702405 766.732485,87.9821429 C765.864717,87.4940452 764.888494,87.25 763.803785,87.25 C762.719075,87.25 761.742852,87.4940452 760.875084,87.9821429 C760.007317,88.4702405 759.320345,89.1666621 758.814147,90.0714286 C758.30795,90.976195 758.054855,92.0238036 758.054855,93.2142857 C758.054855,94.4047679 758.30795,95.4523764 758.814147,96.3571429 C759.320345,97.2619093 760.007317,97.9583309 760.875084,98.4464286 C761.742852,98.9345263 762.719075,99.1785714 763.803785,99.1785714 Z" id="befold"></path>
        </g>
    </g>
</svg>